<svg height="512" viewBox="0 0 512 512" width="512" xmlns="http://www.w3.org/2000/svg"><g id="Fill_out_line" data-name="Fill out line"><path d="m48 296h176v192h-176z" fill="#f18f04"/><path d="m216 352v136h-48v-136l24-56 11.14 26 4.86 11.33z" fill="#f7e5a3"/><path d="m168 352v136h-48v-136l24-56 16 37.33z" fill="#f7e5a3"/><path d="m72 352v136h-48v-136l24-56 16 37.33z" fill="#f7e5a3"/><path d="m120 352v136h-48v-136l24-56 16 37.33z" fill="#f7e5a3"/><path d="m216 352v64h-8v-82.67z" fill="#f7c733"/><path d="m280 243.85v4.15h-64v-4.15a239.8778 239.8778 0 0 1 6.38-54.96l21.62-91.89 4-17 15.32007 65.1 10.29993 43.79a239.8778 239.8778 0 0 1 6.38 54.96z" fill="#93d5f0"/><path d="m472 243.85v4.15h-64v-4.15a239.8778 239.8778 0 0 1 6.38-54.96l10.29993-43.79 11.32007-48.1 4-17 25.62 108.89a239.8778 239.8778 0 0 1 6.38 54.96z" fill="#93d5f0"/><path d="m264 248h64v136h-64z" fill="#f7c733"/><path d="m216 248h48v136h-48z" fill="#f7c733"/><path d="m424 248h48v136h-48z" fill="#f7c733"/><path d="m360 248h64v136h-64z" fill="#f7c733"/><g fill="#93d5f0"><path d="m424 220.1v27.9h-64v-27.9a380.05007 380.05007 0 0 1 10.1-87.03l17.9-76.07 4-17 21.9 93.07a380.05007 380.05007 0 0 1 10.1 87.03z"/><path d="m328 220.1v27.9h-64v-27.9a380.05007 380.05007 0 0 1 10.1-87.03l17.9-76.07 4-17 21.9 93.07a380.05007 380.05007 0 0 1 10.1 87.03z"/><path d="m456 80a15.99739 15.99739 0 0 1 -30.58008 6.58 15.73441 15.73441 0 0 1 -1.41992-6.58 15.99552 15.99552 0 0 1 16-16 15.73428 15.73428 0 0 1 6.58008 1.42 15.973 15.973 0 0 1 9.41992 14.58z"/><path d="m408 40a15.99739 15.99739 0 0 1 -30.58008 6.58 15.73441 15.73441 0 0 1 -1.41992-6.58 15.99552 15.99552 0 0 1 16-16 15.73428 15.73428 0 0 1 6.58008 1.42 15.973 15.973 0 0 1 9.41992 14.58z"/><path d="m312 40a15.99739 15.99739 0 0 1 -30.58008 6.58 15.73441 15.73441 0 0 1 -1.41992-6.58 15.99552 15.99552 0 0 1 16-16 15.73428 15.73428 0 0 1 6.58008 1.42 15.973 15.973 0 0 1 9.41992 14.58z"/><path d="m264 80a15.99739 15.99739 0 0 1 -30.58008 6.58 15.73441 15.73441 0 0 1 -1.41992-6.58 15.99552 15.99552 0 0 1 16-16 15.73428 15.73428 0 0 1 6.58008 1.42 15.973 15.973 0 0 1 9.41992 14.58z"/></g><path d="m392 384v104h-96v-104l8-21.33 40-106.67 40 106.67z" fill="#f7e5a3"/><path d="m456 384v104h-64v-104l32-88z" fill="#f7e5a3"/><path d="m296 384v104h-64v-104l32-88z" fill="#f7e5a3"/><path d="m232 384v104h-32v-104l16-88z" fill="#f7e5a3"/><path d="m344 352a16 16 0 0 1 16 16v48a0 0 0 0 1 0 0h-32a0 0 0 0 1 0 0v-48a16 16 0 0 1 16-16z" fill="#f7c733"/><path d="m488 384v104h-32v-104l16-88z" fill="#f7e5a3"/><path d="m336 312h16v24h-16z"/><path d="m256 360h16v24h-16z"/><path d="m416 360h16v24h-16z"/><path d="m495.87109 382.56885-15.87109-87.29102v-51.42773a248.18427 248.18427 0 0 0 -6.59229-56.792l-20.43771-86.88049a24 24 0 1 0 -25.93994 0l-6.32471 26.88556-15.73526-66.88562a24 24 0 1 0 -25.94018 0l-16.71741 71.06024a388.53865 388.53865 0 0 0 -10.3125 88.86231v34.4489l-.50928-1.35809a8.00017 8.00017 0 0 0 -14.98144 0l-.50928 1.35809v-34.4489a388.53865 388.53865 0 0 0 -10.3125-88.86231l-16.71741-71.06024a24 24 0 1 0 -25.94018 0l-15.7345 66.884-6.3252-26.884a24 24 0 1 0 -25.94018.00012l-20.43726 86.87952a248.17281 248.17281 0 0 0 -6.59277 56.79291v51.42773l-2.26562 12.46076-6.38135-14.89a7.99956 7.99956 0 0 0 -7.35303-4.84859h-144a7.99956 7.99956 0 0 0 -7.353 4.84863l-24 56a7.99947 7.99947 0 0 0 -.647 3.15137v136a7.99977 7.99977 0 0 0 8 8h464a7.99977 7.99977 0 0 0 8-8v-104a7.992 7.992 0 0 0 -.12891-1.43115zm-39.87109-43.29102v-67.27783h-16v44.59009l-8-22v-38.59009h32v39.27783zm7.94409-99.27783h-31.94409v-19.8999a389.13289 389.13289 0 0 0 -3.8822-54.67328l11.8822-50.51068 17.833 75.807a232.13447 232.13447 0 0 1 6.11109 49.27686zm-23.94409-168a8 8 0 1 1 -8 8 8.00917 8.00917 0 0 1 8-8zm-48-40a8 8 0 1 1 -8 8 8.00917 8.00917 0 0 1 8-8zm-14.1123 102.90186 14.1123-59.98707 14.11328 59.98951c2.4082 10.22216 4.40381 20.68164 5.93311 31.09326.00879.0708.01806.1416.02832.2124a372.93927 372.93927 0 0 1 3.92529 53.89014v19.8999h-48v-19.8999a372.49809 372.49809 0 0 1 9.8877-85.19824zm-9.8877 161.09814v-40h48v38.59009l-16 44v-66.59009h-16v67.88232l-16.45581-43.88232zm-80-24v66.59009l-16-44v-38.59009h48v40h.45581l-16.45581 43.88232v-67.88232zm-56 0v67.27783l-8-44v-39.27783h32v38.59009l-8 22v-44.59009zm64-240a8 8 0 1 1 -8 8 8.00917 8.00917 0 0 1 8-8zm0 42.915 14.1123 59.98682a372.49809 372.49809 0 0 1 9.8877 85.19828v19.8999h-48v-19.8999a372.99769 372.99769 0 0 1 3.92529-53.8999c.00733-.04981.01416-.09913.02051-.14942 1.52979-10.42822 3.52881-20.90723 5.9419-31.14892zm-48-2.915a8 8 0 1 1 -8 8 8.00917 8.00917 0 0 1 8-8zm.00024 42.91492 11.88233 50.50341a389.123 389.123 0 0 0 -3.88257 54.68177v19.8999h-31.94409a232.11967 232.11967 0 0 1 6.11157-49.27783zm-47.45092 221.342-3.2323 17.77734a8.00186 8.00186 0 1 0 -2.4408 13.42407l-2.74731 15.11054a7.992 7.992 0 0 0 -.12891 1.43113v.00024a7.97482 7.97482 0 0 0 -5.65674 2.343l-7.0293 7.0293c-1.15905 1.15906-2.25292 2.36481-3.314 3.59247v-43.32292l16-37.3335zm-32.54932-4.56533-11.8678-27.69159h23.7356zm-48 0-11.8678-27.69159h23.7356zm-48 0-11.8678-27.69159h23.7356zm8 21.9505 16-37.3335 16 37.3335v43.32291c-1.061-1.22766-2.15491-2.43341-3.314-3.59247l-7.0293-7.0293a8 8 0 0 0 -11.31348 0l-7.0293 7.0293c-1.159 1.15906-2.25292 2.36481-3.314 3.59247zm48 0 16-37.3335 16 37.3335v43.32291c-1.061-1.22766-2.15491-2.43341-3.314-3.59247l-7.0293-7.0293a8 8 0 0 0 -11.31348 0l-7.0293 7.0293c-1.15905 1.15906-2.25292 2.36481-3.314 3.59247zm-96 0 16-37.3335 16 37.3335v43.32291c-1.061-1.22766-2.15491-2.43341-3.314-3.59247l-7.0293-7.0293a8 8 0 0 0 -11.31348 0l-7.0293 7.0293c-1.15901 1.15909-2.25292 2.36484-3.31392 3.59247zm0 86.35791a49.61468 49.61468 0 0 1 14.62744-35.314l1.37256-1.37252 1.37256 1.37256a49.61468 49.61468 0 0 1 14.62744 35.31396v40h-32zm48 0a49.61468 49.61468 0 0 1 14.62744-35.314l1.37256-1.37252 1.37256 1.37256a49.61468 49.61468 0 0 1 14.62744 35.31396v40h-32zm48 0a49.61468 49.61468 0 0 1 14.62744-35.314l1.37256-1.37252 1.37256 1.37256a49.61468 49.61468 0 0 1 14.62744 35.31396v40h-32zm48 0a49.61468 49.61468 0 0 1 14.62744-35.314l1.37256-1.37252v20.68652a8 8 0 0 0 0 16v40h-16zm32-55.27881 8-44 8 44v95.27881h-16zm32 .68848 24-66 24 66v94.59033h-16v-32h-16v32h-16zm64 .041 40-106.6665 40 106.6665v94.54933h-16v-32h-16v32h-16v-32h-16v32h-16zm96-.041 24-66 24 66v94.59033h-16v-32h-16v32h-16zm80 94.59033h-16v-95.27881l8-44 8 44z"/><path d="m328 424h32a7.99977 7.99977 0 0 0 8-8v-48a24 24 0 0 0 -48 0v48a7.99977 7.99977 0 0 0 8 8zm8-56a8 8 0 0 1 16 0v40h-16z"/><circle cx="48" cy="432" r="8"/><circle cx="96" cy="432" r="8"/><circle cx="144" cy="432" r="8"/><circle cx="48" cy="360" r="8"/><circle cx="96" cy="360" r="8"/><circle cx="144" cy="360" r="8"/></g></svg>