<svg height="512" viewBox="0 0 512 512" width="512" xmlns="http://www.w3.org/2000/svg"><g id="Fill_out_line" data-name="Fill out line"><g fill="#f7e5a3"><path d="m64 176h120v48h-120z"/><path d="m328 176h120v48h-120z"/><path d="m464 248v240h-32v-192h-40v192h-32v-192h-40v192h-32v-192h-64v192h-32v-192h-40v192h-32v-192h-40v192h-32v-240z"/><path d="m184 176h144v48h-144z"/><path d="m168 152h176v24h-176z"/><path d="m488 224v8l-16 16h-432l-16-16v-8z"/><path d="m168 152v24h-104l-16-16v-8z"/><path d="m464 152v8l-16 16h-104v-24z"/><path d="m208 152h-40v-40h24l12.8 32z"/><path d="m256 152h-40v-40h24l12.8 32z"/><path d="m344 112v40h-40l3.2-8 12.8-32z"/><path d="m296 112v40h-40l3.2-8 12.8-32z"/><path d="m424 224-80-48h-16v48z"/><path d="m88 224 80-48h16v48z"/></g><circle cx="256" cy="72" fill="#93d5f0" r="16"/><path d="m72 264h16v16h-16z"/><path d="m104 264h16v16h-16z"/><path d="m136 264h16v16h-16z"/><path d="m168 264h16v16h-16z"/><path d="m200 264h16v16h-16z"/><path d="m232 264h16v16h-16z"/><path d="m264 264h16v16h-16z"/><path d="m296 264h16v16h-16z"/><path d="m328 264h16v16h-16z"/><path d="m360 264h16v16h-16z"/><path d="m392 264h16v16h-16z"/><path d="m424 264h16v16h-16z"/><path d="m488 216h-32v-36.686l13.65723-13.65722a8.00035 8.00035 0 0 0 2.34277-5.65678v-8a8.00008 8.00008 0 0 0 -8-8h-112v-32a8.00008 8.00008 0 0 0 -8-8h-24a7.99975 7.99975 0 0 0 -7.42773 5.02881l-8.57227 21.43066v-18.45947a8.00008 8.00008 0 0 0 -8-8h-24a7.99975 7.99975 0 0 0 -7.42773 5.02881l-.57227 1.43066v-15.83563a23.99494 23.99494 0 0 0 0-45.24768v-1.72907a62.14943 62.14943 0 0 0 37.65625-17.98986l-11.3125-11.31446a46.27585 46.27585 0 0 1 -26.34375 13.18665v-15.52942h-16v15.52942a46.27585 46.27585 0 0 1 -26.34375-13.18665l-11.3125 11.31446a62.14943 62.14943 0 0 0 37.65625 17.98986v1.72907a23.99494 23.99494 0 0 0 0 45.24768v15.83563l-.57227-1.43066a7.99975 7.99975 0 0 0 -7.42773-5.02881h-24a8.00008 8.00008 0 0 0 -8 8v18.45947l-8.57227-21.43066a7.99975 7.99975 0 0 0 -7.42773-5.02881h-24a8.00008 8.00008 0 0 0 -8 8v32h-112a8.00008 8.00008 0 0 0 -8 8v8a8.00035 8.00035 0 0 0 2.34277 5.65674l13.65723 13.65726v36.686h-32a8.00008 8.00008 0 0 0 -8 8v8a8.00035 8.00035 0 0 0 2.34277 5.65674l16 16a8.00076 8.00076 0 0 0 5.65723 2.34326v232a8.00008 8.00008 0 0 0 8 8h32a8.00008 8.00008 0 0 0 8-8v-184h24v184a8.00008 8.00008 0 0 0 8 8h32a8.00008 8.00008 0 0 0 8-8v-184h24v184a8.00008 8.00008 0 0 0 8 8h32a8.00008 8.00008 0 0 0 8-8v-184h48v184a8.00008 8.00008 0 0 0 8 8h32a8.00008 8.00008 0 0 0 8-8v-184h24v184a8.00008 8.00008 0 0 0 8 8h32a8.00008 8.00008 0 0 0 8-8v-184h24v184a8.00008 8.00008 0 0 0 8 8h32a8.00008 8.00008 0 0 0 8-8v-232a8.00076 8.00076 0 0 0 5.65723-2.34326l16-16a8.00035 8.00035 0 0 0 2.34277-5.65674v-8a8.00008 8.00008 0 0 0 -8-8zm-61.78394 0-53.33349-32h67.11743v32zm-309.33349 0 53.33349-32h5.78394v32zm59.11743-56h160v8h-160zm16 24h128v32h-128zm144 0h5.78394l53.33349 32h-59.11743zm108.68652-16h-92.68652v-8h100.68652zm-119.27052-48h10.584v24h-20.18359zm-48 0h10.584v24h-20.18359zm-21.416-56a8 8 0 1 1 -8 8 8.00917 8.00917 0 0 1 8-8zm-32 56h10.584l9.59961 24h-20.18361zm-48 0h10.584l9.59961 24h-20.18361zm-16 40v8h-92.68652l-8-8zm-88 24h67.11743l-53.33349 32h-13.78394zm0 296h-16v-144h16zm0-160h-16v-16h16zm72 160h-16v-144h16zm0-160h-16v-16h16zm72 160h-16v-144h16zm0-160h-16v-16h16zm96 160h-16v-144h16zm0-160h-16v-16h16zm72 160h-16v-144h16zm0-160h-16v-16h16zm72 0h-16v-16h16zm0 160h-16v-144h16zm0-192h-400v-32h400zm12.68652-48h-425.37304l-8-8h441.373z"/><path d="m224 192h64v16h-64z"/></g></svg>