<?xml version="1.0"?>
<svg xmlns="http://www.w3.org/2000/svg" viewBox="0 0 512 512" width="512" height="512"><g id="Fill_out_line" data-name="Fill out line"><path d="M304,72v80H208V72a48,48,0,0,1,96,0Z" style="fill:#5d8bcc"/><path d="M304,72v80H256V24a48.00395,48.00395,0,0,1,48,48Z" style="fill:#4f7ac4"/><polygon points="312 296 328 488 184 488 200 296 312 296" style="fill:#37a7cc"/><polygon points="488 136 488 168 412 168 392 200 320 200 320 352 288 320 200 296 200 200 120 200 100 168 24 168 24 136 48 136 48 120 64 120 80 136 432 136 448 120 464 120 464 136 488 136" style="fill:#93d5f0"/><path d="M280,64V88l-16,16H248L232,88V64a7.98939,7.98939,0,0,1,8-8,15.98882,15.98882,0,0,0,16-16,15.97843,15.97843,0,0,0,16,16A7.99782,7.99782,0,0,1,280,64Z" style="fill:#93d5f0"/><polygon points="272 136 240 136 248 104 264 104 272 136" style="fill:#93d5f0"/><path d="M488,128H472v-8a8.00008,8.00008,0,0,0-8-8H448a8.00076,8.00076,0,0,0-5.65723,2.34326L428.686,128H312V72a56,56,0,0,0-112,0v56H83.314L69.65723,114.34326A8.00076,8.00076,0,0,0,64,112H48a8.00008,8.00008,0,0,0-8,8v8H24a8.00008,8.00008,0,0,0-8,8v32a8.00008,8.00008,0,0,0,8,8H95.56567l17.65015,28.24023A7.99993,7.99993,0,0,0,120,208h72v87.66357L176.02734,487.33545A8.00084,8.00084,0,0,0,184,496H328a8.00084,8.00084,0,0,0,7.97266-8.66455L325.2,358.06769A7.993,7.993,0,0,0,328,352V208h64a7.99993,7.99993,0,0,0,6.78418-3.75977L416.43433,176H488a8.00008,8.00008,0,0,0,8-8V136A8.00008,8.00008,0,0,0,488,128ZM312,332.686l-12.68628-12.6858L312,307.314ZM208,289.88965V200h8.22607a142.14844,142.14844,0,0,0,41.71534,93.25537l8.40234,8.40186,11.3125-11.31446-8.40137-8.40136A126.25781,126.25781,0,0,1,232.25537,200h8.0293A110.44443,110.44443,0,0,0,257.251,251.55615l13.498-8.59082A94.4396,94.4396,0,0,1,256.34473,200H280V309.526ZM296,275.314,308.686,288,296,300.686Zm0-22.62792V144h16V268.686ZM296,72v56H278.24585l-5.38647-21.54553,12.79785-12.79773A8.00035,8.00035,0,0,0,288,88V64a16.01833,16.01833,0,0,0-16-16,8.00917,8.00917,0,0,1-8-8V32.80493A40.068,40.068,0,0,1,296,72Zm-24-8V84.68652L260.68652,96h-9.373L240,84.68652V64a23.905,23.905,0,0,0,16-6.126A23.905,23.905,0,0,0,272,64Zm-17.75391,48h3.50782l4,16H250.24609ZM216,72a40.068,40.068,0,0,1,32-39.19507V40a8.00917,8.00917,0,0,1-8,8,16.01833,16.01833,0,0,0-16,16V88a8.00035,8.00035,0,0,0,2.34277,5.65674l12.79785,12.79773L233.75415,128H216Zm-35.314,72,29.65673,29.65674A8.00076,8.00076,0,0,0,216,176h24V160H219.31348l-15.99976-16H280v40H195.67969l-34.28614-40ZM32,160V144H48a8.00008,8.00008,0,0,0,8-8v-8h4.68652l13.01172,13.01233L85.56567,160Zm62.43359-16h45.88672l41.14258,48H156.53l-21.66968-36.11621-13.7207,8.23242L137.86987,192H124.43359Zm98.26075,336,14.47949-173.75128,12.572,3.42871-6.34644,145.97491,15.98438.69532,6.189-142.35376L248,317.38312V456h16V321.74677l12.91772,3.523,5.69849,131.07788,15.98438-.69532-5.16944-118.90716,15.20264,15.2027L319.30566,480ZM387.56641,192H328V144h39.99951l-4.80029,6.40039A24.1139,24.1139,0,0,1,344,160v16a40.192,40.192,0,0,0,32-15.99951L388.00049,144h29.56592ZM480,160H426.43433l11.86743-18.98767L451.31348,128H456v8a8.00008,8.00008,0,0,0,8,8h16Z"/></g></svg>
