<svg height="512" viewBox="0 0 512 512" width="512" xmlns="http://www.w3.org/2000/svg"><g id="Fill_out_line" data-name="Fill out line"><path d="m216 216h80v104h-80z" fill="#f7e5a3"/><path d="m296 216v104h-8v-96h-72v-8z" fill="#f7c733"/><path d="m184 320h144v96h-144z" fill="#f7e5a3"/><path d="m296 216h-80a54.02217 54.02217 0 0 1 23.8999-81.56l16.1001-6.44 16.1001 6.44a54.02217 54.02217 0 0 1 23.8999 81.56z" fill="#f7e5a3"/><path d="m280 288h-48a37.41441 37.41441 0 0 1 20.25-54.75l3.75-1.25 3.75 1.25a37.41456 37.41456 0 0 1 20.25 54.75z" fill="#f7c733"/><path d="m232 288h48v32h-48z" fill="#f7c733"/><g fill="#f7e5a3"><path d="m129.25 309.5-1.25 2.5h-32l-1.25-2.5a26.4603 26.4603 0 0 1 17.25-37.5 26.4603 26.4603 0 0 1 17.25 37.5z"/><path d="m72 336h80v80h-80z"/><path d="m96 312h32v24h-32z"/><path d="m417.25 309.5-1.25 2.5h-32l-1.25-2.5a26.4603 26.4603 0 0 1 17.25-37.5 26.4603 26.4603 0 0 1 17.25 37.5z"/><path d="m360 336h80v80h-80z"/><path d="m384 312h32v24h-32z"/><path d="m40 248h32v168h-32z"/><path d="m440 248.5h32v167.5h-32z"/><path d="m64 208a39.63321 39.63321 0 0 0 6.6564 21.98458l1.3436 2.01542v16h-32v-16l1.3436-2.01541a39.63321 39.63321 0 0 0 6.6564-21.98459 39.63321 39.63321 0 0 0 -6.6564-21.98458l-1.3436-2.01542v-16h32v16l-1.3436 2.01541a39.63321 39.63321 0 0 0 -6.6564 21.98459z"/><path d="m464 208a39.63321 39.63321 0 0 0 6.6564 21.98458l1.3436 2.01542v16h-32v-16l1.3436-2.01541a39.63321 39.63321 0 0 0 6.6564-21.98459 39.63321 39.63321 0 0 0 -6.6564-21.98458l-1.3436-2.01542v-16h32v16l-1.3436 2.01541a39.63321 39.63321 0 0 0 -6.6564 21.98459z"/><path d="m472 336h24v80h-24z"/><path d="m16 336h24v80h-24z"/></g><path d="m256 352a54.62737 54.62737 0 0 0 -16 38.62737v25.37263h32v-25.37261a54.62737 54.62737 0 0 0 -16-38.62739z" fill="#b67d4d"/><path d="m337.25 277.5-1.25 2.5h-32l-1.25-2.5a26.4603 26.4603 0 0 1 17.25-37.5 26.4603 26.4603 0 0 1 17.25 37.5z" fill="#f7c733"/><path d="m304 280h32v40h-32z" fill="#f7c733"/><path d="m209.25 277.5-1.25 2.5h-32l-1.25-2.5a26.4603 26.4603 0 0 1 17.25-37.5 26.4603 26.4603 0 0 1 17.25 37.5z" fill="#f7c733"/><path d="m176 280h32v40h-32z" fill="#f7c733"/><path d="m328 304h32v112h-32z" fill="#f7e5a3" transform="matrix(-1 0 0 -1 688 720)"/><path d="m152 304h32v112h-32z" fill="#f7e5a3"/><path d="m208 232h16v-8h8v-16h-11.67383a46.0277 46.0277 0 0 1 22.541-66.13086l13.13283-5.25293 13.13281 5.25293a46.0277 46.0277 0 0 1 22.54102 66.13086h-11.67383v16h8v8h16v-13.5658a61.997 61.997 0 0 0 -28.92578-91.42053l-11.07422-4.42967v-18.584h-16v18.584l-11.07422 4.42969a61.997 61.997 0 0 0 -28.92578 91.42051z"/><path d="m496 344v-16h-16v-96a7.99983 7.99983 0 0 0 -1.34375-4.4375l-1.34375-2.01562a31.63441 31.63441 0 0 1 0-35.09376l1.34375-2.01562a7.99983 7.99983 0 0 0 1.34375-4.4375v-16a8.00008 8.00008 0 0 0 -8-8h-8v-16h8v-16h-8v-32h-16v32h-8v16h8v16h-8a8.00008 8.00008 0 0 0 -8 8v16a7.99983 7.99983 0 0 0 1.34375 4.4375l1.34375 2.01562a31.63441 31.63441 0 0 1 0 35.09376l-1.34375 2.01562a7.99983 7.99983 0 0 0 -1.34375 4.4375v96h-8v-14.11133l.4043-.80859a34.45388 34.45388 0 0 0 -16.4043-46.70539v-18.37469h-16v18.37469a34.45421 34.45421 0 0 0 -16.4043 46.70588l.4043.80843v14.111h-8v-24a8.00008 8.00008 0 0 0 -8-8h-16v-14.11133l.4043-.80859a34.45388 34.45388 0 0 0 -16.4043-46.70539v-18.37469h-16v18.37469a34.26539 34.26539 0 0 0 -16.88965 16.89631 34.64692 34.64692 0 0 0 -2.65967 8.59 45.932 45.932 0 0 0 -1.939-6.87121 45.1769 45.1769 0 0 0 -26.51168-26.70179v-18.288h-16v18.28772a45.17755 45.17755 0 0 0 -26.51172 26.702 45.90478 45.90478 0 0 0 -1.939 6.87115 34.6364 34.6364 0 0 0 -2.65967-8.5899 34.26539 34.26539 0 0 0 -16.88961-16.89628v-18.37469h-16v18.37469a34.45421 34.45421 0 0 0 -16.4043 46.70588l.4043.80843v14.111h-16a8.00008 8.00008 0 0 0 -8 8v24h-8v-14.11133l.4043-.80859a34.45388 34.45388 0 0 0 -16.4043-46.70539v-18.37469h-16v18.37469a34.45421 34.45421 0 0 0 -16.4043 46.70588l.4043.80843v14.111h-8v-96a7.99983 7.99983 0 0 0 -1.34375-4.4375l-1.34375-2.01562a31.63441 31.63441 0 0 1 0-35.09376l1.34375-2.01562a7.99983 7.99983 0 0 0 1.34375-4.4375v-16a8.00008 8.00008 0 0 0 -8-8h-8v-16h8v-16h-8v-32h-16v32h-8v16h8v16h-8a8.00008 8.00008 0 0 0 -8 8v16a7.99983 7.99983 0 0 0 1.34375 4.4375l1.34375 2.01562a31.63441 31.63441 0 0 1 0 35.09376l-1.34375 2.01562a7.99983 7.99983 0 0 0 -1.34375 4.4375v96h-16v16h16v64h-16v16h480v-16h-16v-64zm-48-109.57812a47.63223 47.63223 0 0 0 0-52.84376v-5.57812h16v5.57812a47.63223 47.63223 0 0 0 0 52.84376v5.57812h-16zm-58.35352 55.53466a18.35913 18.35913 0 0 1 10.35352-9.59716 18.46618 18.46618 0 0 1 10.9248 23.64062h-21.8496a18.354 18.354 0 0 1 .57128-14.04346zm2.35352 30.04346h16v8h-16zm-72-16v8h-8v-24h16v8a8.00008 8.00008 0 0 0 -8 8zm-10.35352-46.04346a18.35913 18.35913 0 0 1 10.35352-9.59716 18.46618 18.46618 0 0 1 10.9248 23.64062h-21.8496a18.354 18.354 0 0 1 .57128-14.04346zm-16.63037 16.19428a34.72484 34.72484 0 0 0 2.57959 6.92975l.4043.80843v30.111h-8v-21.90955a45.278 45.278 0 0 0 5.01611-15.93963zm-45.01611 29.84918v8h-8v-16h32v16h-8v-8zm-11.50488-45.45947a29.28115 29.28115 0 0 1 18.28808-17.70264l1.2168-.40527 1.21582.40527a29.42747 29.42747 0 0 1 17.88477 39.16211h-38.20118a29.25687 29.25687 0 0 1 -.40429-21.45947zm-17.51123 15.61023a45.28815 45.28815 0 0 0 5.01611 15.93969v21.90955h-8v-30.11133l.4043-.80859a34.7064 34.7064 0 0 0 2.57959-6.92932zm-37.33741-16.19422a18.35913 18.35913 0 0 1 10.35352-9.59716 18.46618 18.46618 0 0 1 10.9248 23.64062h-21.8496a18.354 18.354 0 0 1 .57128-14.04346zm2.35352 30.04346h16v24h-8v-8a8.00008 8.00008 0 0 0 -8-8zm-82.35352 1.95654a18.35913 18.35913 0 0 1 10.35352-9.59716 18.46618 18.46618 0 0 1 10.9248 23.64062h-21.8496a18.354 18.354 0 0 1 .57128-14.04346zm2.35352 30.04346h16v8h-16zm-56-85.57812a47.63223 47.63223 0 0 0 0-52.84376v-5.57812h16v5.57812a47.63223 47.63223 0 0 0 0 52.84376v5.57812h-16zm0 21.57812h16v152h-16zm32 88h64v64h-8v-24h-16v24h-16v-24h-16v24h-8zm80-32h16v96h-16zm32 16h128v80h-16v-24h-16v24h-8v-17.37256a62.21624 62.21624 0 0 0 -18.34375-44.28467 7.99886 7.99886 0 0 0 -11.3125 0 62.21624 62.21624 0 0 0 -18.34375 44.28467v17.37256h-8v-24h-16v24h-16zm56 80v-17.37256a46.29375 46.29375 0 0 1 8-26.14062 46.29375 46.29375 0 0 1 8 26.14062v17.37256zm88-96h16v96h-16zm32 32h64v64h-8v-24h-16v24h-16v-24h-16v24h-8zm96 64h-16v-151.5h16z"/></g></svg>